<svg xmlns="http://www.w3.org/2000/svg" viewBox="0 0 512.001 512.001"><path d="M511.733 251.063c-1.345-70.171-30.591-135.214-82.333-183.123-97.425-90.587-250.05-90.587-347.48.005C30.39 115.914 1.312 180.968.06 251.134c-1.258 70.171 25.397 136.161 75.049 185.813 2.074 2.08 4.9 3.25 7.845 3.19a10.88 10.88 0 007.758-3.403c3-3.163 6.696-6.974 8.155-8.373.506-.359.985-.762 1.437-1.214l24.036-24.031h78.239c9.059 0 17.046-5.461 20.351-13.91 3.245-8.286 1.143-17.509-5.03-23.193-21.113-21.118-32.742-49.124-32.742-78.866v-93.641c0-9.517 3.604-18.146 10.42-24.967 6.626-6.62 15.723-10.42 24.967-10.42h70.231c9.517 0 18.151 3.604 24.967 10.426 6.626 6.615 10.42 15.718 10.42 24.962v93.641c0 29.747-11.623 57.758-33.063 79.209-5.793 6.31-7.23 15.62-3.669 23.715 3.533 8.047 11.144 13.044 19.855 13.044h82.753c6.01 0 10.889-4.878 10.889-10.888s-4.878-10.889-10.889-10.889l-82.584.125c-.087-.098-.169-.338-.18-.512 24.94-25.169 38.665-58.46 38.665-93.805v-93.641c0-14.977-6.125-29.693-16.801-40.364-10.829-10.834-25.163-16.801-40.364-16.801h-70.231c-14.977 0-29.693 6.125-40.369 16.801-10.829 10.834-16.796 25.169-16.796 40.364v93.641c0 35.556 13.894 69.033 39.199 94.191h-82.753a10.894 10.894 0 00-7.698 3.19l-27.063 27.063a45.56 45.56 0 00-2.189 1.971c-40.522-44.409-62.124-101.519-61.041-162.037 1.149-64.199 27.76-123.737 74.924-167.634 89.106-82.856 228.702-82.856 317.836.011 47.371 43.864 74.14 103.376 75.376 167.574 1.23 64.204-23.127 124.597-68.603 170.073-4.252 4.252-4.252 11.144 0 15.396 2.129 2.129 4.911 3.19 7.698 3.19s5.57-1.062 7.693-3.185c49.697-49.694 76.325-115.711 74.975-185.887z"/><path d="M511.82 245.94c-.212-6.01-5.031-10.731-11.264-10.502-6.01.207-10.709 5.248-10.502 11.259 2.265 64.607-21.118 125.697-65.843 172.011-44.529 46.118-104.296 71.516-168.271 71.516-6.01 0-10.889 4.878-10.889 10.888s4.878 10.889 10.889 10.889c69.942 0 135.263-27.755 183.94-78.163 48.862-50.6 74.407-117.33 71.94-187.898z"/></svg>