<svg xmlns="http://www.w3.org/2000/svg" width="31.553" height="31.552"><circle cx="11.079" cy="17.836" r="2.126"/><path d="M31.553 16.116c0-2.627-2.068-4.764-4.61-4.764-.892 0-1.72.27-2.425.722-2.187-1.27-4.945-2.059-7.957-2.167l1.736-4.984 3.596.861c-.012.119-.035.233-.035.355a3.6 3.6 0 003.596 3.595c1.98 0 3.596-1.612 3.596-3.595s-1.615-3.595-3.596-3.595c-1.293 0-2.417.69-3.05 1.715l-5.142-1.23-2.4 6.888c-2.998.154-5.727.99-7.873 2.294.043-.03.08-.064.123-.094a4.487 4.487 0 00-2.501-.766c-2.543 0-4.61 2.136-4.61 4.764a4.77 4.77 0 002.312 4.104c.564 4.912 6.419 8.789 13.549 8.789 7.176 0 13.061-3.929 13.559-8.886a4.79 4.79 0 002.132-4.006zm-6.101-11.97c1.099 0 1.994.895 1.994 1.995a1.996 1.996 0 01-3.99 0c0-1.101.896-1.995 1.996-1.995zM4.61 12.952c.363 0 .705.079 1.027.203-1.74 1.395-2.909 3.145-3.261 5.077a3.246 3.246 0 01-.778-2.116c0-1.744 1.352-3.164 3.012-3.164zM15.86 27.41c-6.621 0-12.006-3.572-12.006-7.963 0-4.392 5.385-7.963 12.006-7.963 6.62 0 12.004 3.572 12.004 7.963 0 4.39-5.384 7.963-12.004 7.963zm13.445-9.352c-.393-1.88-1.559-3.581-3.272-4.941a2.82 2.82 0 01.91-.165c1.659 0 3.01 1.419 3.01 3.164a3.257 3.257 0 01-.648 1.942z"/><circle cx="20.221" cy="17.836" r="2.126"/><path d="M19.879 22.562c-4.504 2.973-8.138.172-8.3.045a.799.799 0 10-1.003 1.246c.03.025 2.106 1.657 5.121 1.657 1.499 0 3.232-.405 5.062-1.612a.8.8 0 00-.88-1.336z"/></svg>