<svg xmlns="http://www.w3.org/2000/svg" viewBox="0 0 512 512"><path d="M446.165 324.459C488.128 293.973 512 250.048 512 202.667c0-88.235-83.733-160-186.667-160-83.072 0-154.88 45.803-178.731 113.963-1.941 5.568.981 11.648 6.549 13.589 5.568 1.941 11.627-1.003 13.589-6.549C187.264 104.981 252.48 64 325.333 64c91.157 0 165.333 62.208 165.333 138.667 0 42.923-23.339 82.773-64.021 109.355-4.544 2.965-6.123 8.853-3.712 13.696l10.432 20.885-30.187-17.259c-2.795-1.6-6.123-1.813-9.131-.704-14.613 5.632-30.4 9.451-46.869 11.328-5.845.661-10.048 5.952-9.387 11.797s5.739 10.091 11.797 9.387c16.491-1.856 32.384-5.504 47.317-10.816l56.448 32.256a10.52 10.52 0 005.291 1.408c2.667 0 5.312-1.003 7.339-2.923 3.413-3.221 4.331-8.32 2.219-12.523l-22.037-44.095z"/><path d="M160 191.979c-88.235 0-160 57.408-160 128 0 38.037 21.483 74.283 57.92 98.475l-14.507 36.245a10.678 10.678 0 002.688 11.819 10.589 10.589 0 007.211 2.816 10.71 10.71 0 004.8-1.131l52.885-26.453A196.185 196.185 0 00160 447.979c88.235 0 160-57.408 160-128s-71.765-128-160-128zm-.043 234.688a174.77 174.77 0 01-47.253-6.528c-2.56-.704-5.291-.469-7.659.725l-31.424 15.701 7.403-18.475a10.65 10.65 0 00-4.523-13.163C41.429 384.448 21.312 353.493 21.312 320c0-58.816 62.208-106.667 138.667-106.667S298.624 261.184 298.624 320s-62.208 106.667-138.667 106.667z"/></svg>